<svg width="331" height="517" viewBox="0 0 331 517" fill="none" xmlns="http://www.w3.org/2000/svg">
<path d="M262.589 163.729V499.566C262.589 507.25 257.178 510.364 250.53 506.52L20.2201 373.543C16.7033 371.265 13.7768 368.186 11.6806 364.558C9.58442 360.93 8.3783 356.856 8.16123 352.672V16.7703C8.07289 9.08443 13.4618 5.97035 20.2201 9.81326L113.974 64.0119C114.175 70.6759 115.946 77.1982 119.142 83.0496L23.1353 27.6365V354.792L247.504 484.348V157.235L151.498 101.734C154.722 99.2824 156.666 94.799 156.666 88.6594L250.53 142.836C254.041 145.125 256.963 148.21 259.058 151.84C261.153 155.47 262.363 159.544 262.589 163.729Z" fill="#A2D2FF"/>
<path d="M247.51 157.24V484.353L23.1406 354.796V27.6406L119.147 83.0537C122.795 90.3985 128.396 96.5961 135.336 100.965C141.785 104.698 147.594 104.72 151.503 101.738L247.51 157.24Z" fill="#F6F9FE"/>
<path d="M182.131 103.349L156.666 88.7726C156.666 94.9126 154.722 99.396 151.498 101.847C147.588 104.829 141.78 104.807 135.331 101.074C128.391 96.7051 122.79 90.5075 119.142 83.1628C115.946 77.3118 114.175 70.7891 113.974 64.125L88.5312 49.3052C94.5166 29.4282 113.201 23.2662 135.331 36.0539C157.461 48.8417 176.123 76.5812 182.131 103.349Z" fill="#FDE52B"/>
<path d="M151.503 101.733L247.51 157.168V484.324L23.1406 354.769V27.6133L119.147 83.0485" stroke="#0A1832" stroke-width="16.3227" stroke-linecap="round" stroke-linejoin="round"/>
<path d="M98.9765 154.298V178.416L58.957 155.314V109.089L92.0855 128.237" stroke="#0A1832" stroke-width="16.3227" stroke-linecap="round" stroke-linejoin="round"/>
<path d="M67.9219 132.433L79.0531 151.758L105.49 136.519" stroke="#0A1832" stroke-width="16.3227" stroke-linecap="round" stroke-linejoin="round"/>
<path d="M125.441 156.374L220.3 211.124" stroke="#0A1832" stroke-width="16.3227" stroke-linecap="round" stroke-linejoin="round"/>
<path d="M125.441 180.952L182.533 213.904" stroke="#0A1832" stroke-width="16.3227" stroke-linecap="round" stroke-linejoin="round"/>
<path d="M98.9765 232.15V256.245L58.957 233.166V186.94L92.0855 206.067" stroke="#0A1832" stroke-width="16.3227" stroke-linecap="round" stroke-linejoin="round"/>
<path d="M67.9219 210.287L79.0531 229.568L105.49 214.351" stroke="#0A1832" stroke-width="16.3227" stroke-linecap="round" stroke-linejoin="round"/>
<path d="M125.441 234.2L220.3 288.973" stroke="#0A1832" stroke-width="16.3227" stroke-linecap="round" stroke-linejoin="round"/>
<path d="M125.441 258.787L182.533 291.739" stroke="#0A1832" stroke-width="16.3227" stroke-linecap="round" stroke-linejoin="round"/>
<path d="M98.9765 309.978V334.074L58.957 310.994V264.769L92.0855 283.917" stroke="#0A1832" stroke-width="16.3227" stroke-linecap="round" stroke-linejoin="round"/>
<path d="M67.9219 288.113L79.0531 307.416L105.49 292.177" stroke="#0A1832" stroke-width="16.3227" stroke-linecap="round" stroke-linejoin="round"/>
<path d="M125.441 312.055L220.3 366.805" stroke="#0A1832" stroke-width="16.3227" stroke-linecap="round" stroke-linejoin="round"/>
<path d="M125.441 336.639L182.533 369.591" stroke="#0A1832" stroke-width="16.3227" stroke-linecap="round" stroke-linejoin="round"/>
<path d="M182.131 103.348C176.123 76.5799 157.439 48.8181 135.331 36.0305C113.223 23.2428 94.5166 29.4047 88.5312 49.282" stroke="#0A1832" stroke-width="16.3227" stroke-linecap="round" stroke-linejoin="round"/>
<path d="M88.531 49.3025L113.974 64.0119C114.178 70.6755 115.948 77.1974 119.142 83.0496C122.796 90.3899 128.396 96.5859 135.331 100.961C141.78 104.694 147.589 104.694 151.498 101.734C154.722 99.2605 156.666 94.799 156.666 88.6594L250.53 142.836C254.041 145.125 256.963 148.21 259.058 151.84C261.153 155.47 262.363 159.544 262.589 163.729V499.566C262.589 507.25 257.178 510.364 250.53 506.52L20.2201 373.543C16.7033 371.265 13.7768 368.186 11.6806 364.558C9.58442 360.93 8.3783 356.856 8.16123 352.672V16.7703C8.07289 9.08443 13.4618 5.97035 20.2201 9.81326L88.531 49.3025Z" stroke="#0A1832" stroke-width="16.3227" stroke-linecap="round" stroke-linejoin="round"/>
<path d="M115.345 501.555L92.6406 506.678L97.7203 483.199C97.7203 483.353 97.7203 483.508 97.7203 483.642C99.0201 487.815 101.297 491.618 104.363 494.731C107.428 497.849 111.193 500.187 115.345 501.555Z" fill="#F6F9FE"/>
<path d="M150.527 482.201L288.386 344.343C290.768 345.465 293.244 346.374 295.785 347.06C297 347.369 298.215 347.634 299.341 347.811C307.27 349.07 313.564 347.458 317.562 343.394L179.592 481.341C179.132 481.791 178.646 482.209 178.134 482.599C174.181 485.713 168.372 486.841 161.371 485.672C160.245 485.493 159.03 485.23 157.815 484.921C155.316 484.215 152.878 483.305 150.527 482.201Z" fill="#A2D2FF"/>
<path d="M116.188 447.49L254.069 309.632C256.102 314.278 258.69 318.66 261.777 322.684C263.741 325.266 265.874 327.715 268.159 330.017L130.278 467.876C128.038 465.57 125.95 463.122 124.028 460.545C120.892 456.53 118.259 452.146 116.188 447.49Z" fill="#F6F9FE"/>
<path d="M150.527 482.209C152.914 483.321 155.389 484.226 157.926 484.929C159.141 485.237 160.355 485.501 161.481 485.68C168.483 486.849 174.269 485.68 178.245 482.607C174.119 486.67 168.94 489.503 163.293 490.782L115.344 501.559C111.209 500.179 107.462 497.837 104.413 494.719C101.363 491.606 99.0994 487.811 97.8086 483.646C97.8086 483.512 97.8086 483.358 97.8086 483.203L108.1 435.699C109.323 429.837 112.232 424.467 116.471 420.237L117.553 419.133C113.136 423.553 111.678 430.596 113.644 439.518C113.644 439.985 113.865 440.423 113.997 440.911C114.582 443.123 115.32 445.294 116.206 447.405C118.242 452.053 120.838 456.437 123.936 460.456C125.894 463.037 128.019 465.485 130.297 467.791C133.231 470.758 136.407 473.478 139.793 475.917C143.152 478.369 146.747 480.476 150.527 482.209Z" fill="#F6F9FE"/>
<path d="M288.273 344.348L150.525 482.205C146.779 480.496 143.214 478.418 139.879 476.003C136.494 473.559 133.317 470.843 130.383 467.872L268.264 330.014C271.191 332.982 274.36 335.701 277.739 338.141C281.033 340.56 284.562 342.639 288.273 344.348Z" fill="#4A7FA7"/>
<path d="M297.069 315.267C298.66 321.164 295.17 324.675 289.251 323.085C286.099 322.045 283.234 320.28 280.887 317.933C278.54 315.586 276.775 312.721 275.735 309.569C274.166 303.65 277.656 300.16 283.553 301.75C286.711 302.78 289.581 304.541 291.93 306.889C294.279 309.239 296.04 312.109 297.069 315.267Z" fill="#0A1832"/>
<path d="M317.454 343.463C313.457 347.46 307.163 349.072 299.234 347.88C298.107 347.703 296.893 347.438 295.678 347.129C293.137 346.443 290.661 345.534 288.279 344.412C284.529 342.71 280.963 340.631 277.634 338.206C274.255 335.766 271.086 333.047 268.159 330.079C265.873 327.777 263.741 325.328 261.776 322.746C258.69 318.722 256.102 314.339 254.068 309.694C253.177 307.585 252.439 305.415 251.86 303.2C251.727 302.736 251.617 302.251 251.507 301.809C249.298 292.974 251.065 285.775 255.438 281.424C259.811 277.073 267.629 275.284 277.214 277.846C296.341 282.97 315.997 302.626 321.121 321.774C323.594 331.271 322.049 338.869 317.454 343.463ZM289.251 323.077C295.17 324.668 298.66 321.156 297.069 315.259C296.04 312.101 294.279 309.23 291.93 306.882C289.581 304.533 286.711 302.772 283.553 301.743C277.656 300.152 274.166 303.642 275.734 309.561C276.775 312.713 278.54 315.578 280.887 317.925C283.234 320.272 286.099 322.037 289.251 323.077Z" fill="#F6F9FE"/>
<path d="M113.553 439.603C111.587 430.771 113.111 423.569 117.462 419.218L255.343 281.358C250.926 285.776 249.292 292.843 251.412 301.744C251.412 302.185 251.633 302.671 251.766 303.135C252.344 305.35 253.082 307.52 253.974 309.628L116.181 447.486C115.295 445.376 114.557 443.208 113.973 440.996C113.774 440.509 113.641 440.066 113.553 439.603Z" fill="#A2D2FF"/>
<path d="M251.413 301.744C251.413 302.186 251.634 302.672 251.766 303.136C252.355 305.347 253.093 307.516 253.975 309.629C256.009 314.275 258.597 318.657 261.683 322.681C266.19 328.578 271.532 333.786 277.54 338.142C280.877 340.554 284.443 342.632 288.186 344.347C290.571 345.46 293.046 346.368 295.584 347.064C296.799 347.373 298.014 347.638 299.14 347.815C307.069 349.074 313.363 347.462 317.361 343.398C321.955 338.804 323.501 331.207 320.939 321.643C315.815 302.495 296.159 282.839 277.033 277.715C267.447 275.153 259.85 276.699 255.256 281.293C250.662 285.887 249.315 292.844 251.413 301.744Z" stroke="#0A1832" stroke-width="16.3227" stroke-linecap="round" stroke-linejoin="round"/>
<path d="M297.069 315.267C296.04 312.109 294.279 309.239 291.93 306.889C289.581 304.541 286.711 302.78 283.553 301.75C277.656 300.16 274.166 303.65 275.735 309.569C276.775 312.721 278.54 315.586 280.887 317.933C283.234 320.28 286.099 322.045 289.251 323.085C295.17 324.675 298.66 321.164 297.069 315.267Z" stroke="#0A1832" stroke-width="16.3227" stroke-linecap="round" stroke-linejoin="round"/>
<path d="M97.7227 483.199C97.7227 483.353 97.7227 483.508 97.7227 483.642C99.0135 487.806 101.278 491.602 104.327 494.715C107.376 497.829 111.124 500.175 115.258 501.555" stroke="#0A1832" stroke-width="16.3227" stroke-linecap="round" stroke-linejoin="round"/>
<path d="M255.344 281.358L117.396 419.218C112.979 423.634 111.521 430.681 113.487 439.603C113.487 440.066 113.708 440.509 113.84 440.996C114.425 443.208 115.163 445.376 116.049 447.486C118.094 452.13 120.689 456.514 123.779 460.541C125.736 463.122 127.861 465.57 130.139 467.872C133.068 470.847 136.245 473.567 139.636 475.998C143.055 478.418 146.702 480.496 150.524 482.205C152.915 483.305 155.389 484.214 157.923 484.925C159.138 485.233 160.353 485.497 161.479 485.676C168.48 486.845 174.289 485.675 178.242 482.603C178.753 482.213 179.24 481.795 179.7 481.344L317.559 343.464" stroke="#0A1832" stroke-width="16.3227" stroke-linecap="round" stroke-linejoin="round"/>
<path d="M117.397 419.223L116.315 420.327C112.076 424.552 109.167 429.927 107.945 435.784L92.4844 506.768L163.181 490.734C168.832 489.467 174.013 486.634 178.133 482.563L179.502 481.215" stroke="#0A1832" stroke-width="16.3227" stroke-linecap="round" stroke-linejoin="round"/>
<path d="M254.069 309.632L116.188 447.49" stroke="#0A1832" stroke-width="16.3227" stroke-linecap="round" stroke-linejoin="round"/>
<path d="M268.155 330.014L130.273 467.872" stroke="#0A1832" stroke-width="16.3227" stroke-linecap="round" stroke-linejoin="round"/>
<path d="M288.277 344.347L150.418 482.205" stroke="#0A1832" stroke-width="16.3227" stroke-linecap="round" stroke-linejoin="round"/>
</svg>
