<svg width="450" height="517" viewBox="0 0 450 517" fill="none" xmlns="http://www.w3.org/2000/svg">
<path d="M155.957 191.57C164.128 204.144 217.117 285.854 224.848 297.817V335.1L210.658 326.953C210.57 326.928 210.487 326.886 210.414 326.831L209.337 326.22L208.848 325.926L208.432 325.681C208.272 325.572 208.1 325.481 207.918 325.412L202.659 322.232H202.512C200.995 321.425 60.3518 240.18 59.7403 239.813C59.6612 239.772 59.5874 239.723 59.52 239.666C58.5168 239.128 22.1145 218.089 8.58594 210.309V172.879L116.668 130.973C130.612 152.501 154.856 189.906 155.957 191.57ZM27.9369 192.328L196.127 289.426L111.995 159.767L27.9369 192.328Z" fill="#F6F9FE"/>
<path d="M394.574 329.502V354.333C394.55 355.575 394.272 356.799 393.759 357.93C393.246 359.062 392.508 360.077 391.589 360.914C391.412 361.119 391.216 361.307 391.003 361.476C390.14 362.222 389.215 362.893 388.238 363.482C387.724 363.8 387.161 364.094 386.623 364.363C385.378 364.971 384.085 365.478 382.758 365.88C381.877 366.173 380.972 366.418 380.018 366.638C371.729 368.657 362.989 367.614 355.408 363.702C350.955 361.109 348.68 357.733 348.68 354.333V264.819L394.574 238.765V329.502Z" fill="#F6F9FE"/>
<path d="M208.384 325.605L207.797 325.287C207.979 325.356 208.151 325.446 208.311 325.556L208.384 325.605Z" fill="#F6F9FE"/>
<path d="M97.457 362.528C97.922 362.185 98.3621 361.843 98.7781 361.476C98.3635 361.857 97.922 362.209 97.457 362.528Z" fill="#F6F9FE"/>
<path d="M283.633 402.769C284.367 403.209 285.174 403.674 286.079 404.09C285.237 403.702 284.42 403.26 283.633 402.769Z" fill="#F6F9FE"/>
<path d="M8.55859 172.854L224.894 50.0211L333.024 8.16309C331.116 9.26398 117.203 130.63 116.665 130.972L8.55859 172.854Z" fill="#F6F9FE"/>
<path d="M196.116 289.422L27.9258 192.324L111.984 159.714L196.116 289.422Z" fill="#0A1832"/>
<path d="M323.925 288.716V394.058C323.925 397.459 321.674 400.835 317.197 403.428C309.618 407.351 300.875 408.394 292.586 406.363C291.926 406.217 291.241 406.045 290.58 405.85C289.007 405.397 287.476 404.807 286.005 404.088C285.174 403.672 284.367 403.232 283.559 402.767C282.624 402.158 281.756 401.452 280.966 400.663C280.05 399.818 279.312 398.798 278.796 397.664C278.279 396.53 277.994 395.304 277.957 394.058V304.911L323.851 278.882L323.925 288.716Z" fill="#F6F9FE"/>
<path d="M59.3984 239.6C59.4658 239.657 59.5395 239.706 59.6187 239.747L102.357 264.431V354.336C102.322 355.578 102.038 356.801 101.521 357.932C101.004 359.063 100.265 360.077 99.3482 360.917C99.1706 361.122 98.9741 361.311 98.761 361.479C98.3451 361.846 97.9044 362.189 97.4399 362.531C96.975 362.874 96.4858 363.167 95.9719 363.486C95.4562 363.818 94.9162 364.112 94.3573 364.366C93.1239 364.964 91.8483 365.471 90.5408 365.883C89.6357 366.177 88.7306 366.421 87.7765 366.641C79.5032 368.659 70.7794 367.617 63.2148 363.705C58.7378 361.112 56.5117 357.737 56.5117 354.336V237.937C57.4411 238.475 58.3219 239.061 59.3984 239.6Z" fill="#F6F9FE"/>
<path d="M183.793 234.456C184.478 235.532 185.163 236.585 185.848 237.612C185.163 236.683 184.478 235.606 183.793 234.456Z" fill="#F6F9FE"/>
<path d="M21.6193 364.113L22.3532 364.528L28.5426 368.1L29.0808 368.418L224.572 481.293L440.956 356.357V383.268L224.523 508.159L8.16406 383.243V356.333L13.962 359.685L14.2067 359.831L15.5277 360.59L21.6193 364.113Z" fill="#0A1832"/>
<path d="M273.379 307.552C274.308 307.038 275.189 306.549 276.094 306.011L273.379 307.552Z" fill="#F6F9FE"/>
<path d="M224.844 297.817L116.664 130.972C117.202 130.63 331.115 9.26398 333.023 8.16309L441.203 174.983C404.58 195.802 225.7 297.327 224.844 297.817Z" fill="#A2D2FF"/>
<path d="M173.761 394.053V305.616L202.384 322.154V435.593C202.384 438.969 204.634 442.37 209.111 444.938C223.569 453.28 248.254 447.384 248.254 435.593V321.786L278.002 304.906V394.053C278.039 395.299 278.324 396.525 278.841 397.659C279.357 398.793 280.095 399.813 281.011 400.659C281.807 401.44 282.675 402.145 283.604 402.762C284.391 403.254 285.208 403.695 286.05 404.083C287.526 404.792 289.056 405.381 290.625 405.845C291.286 406.04 291.971 406.212 292.631 406.359C300.92 408.389 309.664 407.346 317.242 403.423C321.719 400.829 323.969 397.454 323.969 394.053V288.711L348.678 302.949V354.324C348.678 357.724 350.953 361.1 355.406 363.693C362.997 367.581 371.736 368.597 380.017 366.556C380.971 366.335 381.876 366.091 382.756 365.797C384.084 365.396 385.376 364.889 386.622 364.281C387.16 364.011 387.722 363.718 388.236 363.4C389.212 362.819 390.137 362.156 391.001 361.418C391.197 361.222 391.417 361.027 391.588 360.831C392.506 359.994 393.244 358.979 393.757 357.848C394.27 356.716 394.548 355.492 394.573 354.25V329.493L440.907 356.232L224.523 481.171L28.9584 368.293L28.4202 367.974L26.9035 367.118L26.0472 366.556L25.1665 366.042L14.2801 359.73L14.0354 359.583L8.16406 356.232L56.4558 328.343V354.324C56.4558 357.724 58.682 361.1 63.1589 363.693C70.7191 367.567 79.423 368.584 87.672 366.556C88.6261 366.335 89.5312 366.091 90.4363 365.797C91.7439 365.385 93.019 364.878 94.2528 364.281C94.8117 364.027 95.3513 363.733 95.8674 363.4C96.3746 363.11 96.8647 362.792 97.335 362.446C97.8 362.079 98.2649 361.736 98.6565 361.394C98.8696 361.225 99.0661 361.037 99.2433 360.831C100.17 360.009 100.922 359.01 101.455 357.892C101.989 356.774 102.293 355.561 102.35 354.324V301.873L127.866 287.194V394.102C127.866 397.503 130.117 400.878 134.594 403.472C139.618 406.028 145.176 407.361 150.813 407.361C156.451 407.361 162.009 406.028 167.033 403.472C171.51 400.805 173.761 397.454 173.761 394.053Z" fill="#A2D2FF"/>
<path d="M233.455 330.213L224.844 335.106V297.823C225.7 297.333 404.58 195.808 441.203 174.989V212.297L237.296 328.036L236.904 328.28L236.195 328.672L234.507 329.626L233.455 330.213Z" fill="#4A7FA7"/>
<path d="M95.9688 363.483C96.5065 363.174 96.9962 362.856 97.4363 362.529C96.9737 362.886 96.4827 363.206 95.9688 363.483Z" fill="#F6F9FE"/>
<path d="M132.686 281.911L173.762 305.616V394.054C173.762 397.454 171.511 400.831 167.034 403.424C162.01 405.98 156.452 407.313 150.814 407.313C145.177 407.313 139.619 405.98 134.595 403.424C130.118 400.831 127.867 397.454 127.867 394.054V279.073C129.482 280.052 131.096 280.932 132.686 281.911Z" fill="#F6F9FE"/>
<path d="M210.651 326.949L211.336 327.316C216.228 330.105 224.302 334.802 224.84 335.095L236.901 328.27L237.292 328.025L248.276 321.787V435.594C248.276 447.312 223.568 453.281 209.134 444.939C204.657 442.492 202.406 438.969 202.406 435.594V322.154H202.553L203.116 322.497L204.804 323.451L205.097 323.646L208.425 325.555L208.816 325.775L209.305 326.068L210.381 326.68C210.455 326.735 210.538 326.777 210.626 326.802L210.651 326.949Z" fill="#F6F9FE"/>
<path d="M394.57 329.503L440.905 356.242" stroke="#0A1832" stroke-width="16.3227" stroke-linecap="round" stroke-linejoin="round"/>
<path d="M323.922 288.716L348.68 303.003" stroke="#0A1832" stroke-width="16.3227" stroke-linecap="round" stroke-linejoin="round"/>
<path d="M283.633 402.769C284.42 403.26 285.237 403.702 286.079 404.09" stroke="#0A1832" stroke-width="16.3227" stroke-linecap="round" stroke-linejoin="round"/>
<path d="M273.379 307.552L276.094 306.011" stroke="#0A1832" stroke-width="16.3227" stroke-linecap="round" stroke-linejoin="round"/>
<path d="M208.375 325.612L208.791 325.857" stroke="#0A1832" stroke-width="16.3227" stroke-linecap="round" stroke-linejoin="round"/>
<path d="M102.352 301.875L127.867 287.147" stroke="#0A1832" stroke-width="16.3227" stroke-linecap="round" stroke-linejoin="round"/>
<path d="M97.457 362.528C97.922 362.185 98.3621 361.843 98.7781 361.476" stroke="#0A1832" stroke-width="16.3227" stroke-linecap="round" stroke-linejoin="round"/>
<path d="M95.9688 363.483C96.5065 363.174 96.9962 362.856 97.4363 362.529" stroke="#0A1832" stroke-width="16.3227" stroke-linecap="round" stroke-linejoin="round"/>
<path d="M8.16406 356.236L56.4558 328.347" stroke="#0A1832" stroke-width="16.3227" stroke-linecap="round" stroke-linejoin="round"/>
<path d="M38.7433 373.902L36.2969 372.532" stroke="#0A1832" stroke-width="16.3227" stroke-linecap="round" stroke-linejoin="round"/>
<path d="M43.6417 376.71L41.6602 375.561" stroke="#0A1832" stroke-width="16.3227" stroke-linecap="round" stroke-linejoin="round"/>
<path d="M440.907 356.239V383.15L224.523 508.162L8.16406 383.247V356.337L13.962 359.689L14.2067 359.835L15.5277 360.594L28.4936 368.08L29.0318 368.398L224.523 481.274L440.907 356.239Z" stroke="#0A1832" stroke-width="16.3227" stroke-linecap="round" stroke-linejoin="round"/>
<path d="M237.297 328.025L238.422 327.39" stroke="#0A1832" stroke-width="16.3227" stroke-linecap="round" stroke-linejoin="round"/>
<path d="M207.816 325.317C207.998 325.387 208.17 325.477 208.33 325.587" stroke="#0A1832" stroke-width="16.3227" stroke-linecap="round" stroke-linejoin="round"/>
<path d="M248.276 321.787V435.594C248.276 447.312 223.568 453.281 209.134 444.939C204.657 442.492 202.406 438.969 202.406 435.594V322.154" stroke="#0A1832" stroke-width="16.3227" stroke-linecap="round" stroke-linejoin="round"/>
<path d="M173.762 305.616V394.054C173.762 397.454 171.511 400.831 167.034 403.424C162.01 405.98 156.452 407.313 150.814 407.313C145.177 407.313 139.619 405.98 134.595 403.424C130.118 400.831 127.867 397.454 127.867 394.054V279.073" stroke="#0A1832" stroke-width="16.3227" stroke-linecap="round" stroke-linejoin="round"/>
<path d="M70.4062 245.95L72.8527 247.467" stroke="#0A1832" stroke-width="16.3227" stroke-linecap="round" stroke-linejoin="round"/>
<path d="M102.357 264.431V354.336C102.322 355.578 102.038 356.801 101.521 357.932C101.004 359.063 100.265 360.077 99.3482 360.917C99.1706 361.122 98.9741 361.311 98.761 361.479C98.3693 361.822 97.9044 362.165 97.4399 362.531C96.9692 362.878 96.4791 363.196 95.9719 363.486C95.4562 363.818 94.9162 364.112 94.3573 364.366C93.1239 364.964 91.8483 365.471 90.5408 365.883C89.6357 366.177 88.7306 366.421 87.7765 366.641C79.5032 368.659 70.7794 367.617 63.2148 363.705C58.7378 361.112 56.5117 357.737 56.5117 354.336V237.937" stroke="#0A1832" stroke-width="16.3227" stroke-linecap="round" stroke-linejoin="round"/>
<path d="M323.925 278.882V394.058C323.925 397.459 321.674 400.835 317.197 403.428C309.618 407.351 300.875 408.394 292.586 406.363C291.926 406.217 291.241 406.045 290.58 405.85C289.007 405.397 287.476 404.807 286.005 404.088C285.174 403.672 284.367 403.232 283.559 402.767C282.624 402.158 281.756 401.452 280.966 400.663C280.05 399.818 279.312 398.798 278.796 397.664C278.279 396.53 277.994 395.304 277.957 394.058V304.911" stroke="#0A1832" stroke-width="16.3227" stroke-linecap="round" stroke-linejoin="round"/>
<path d="M394.574 238.765V354.333C394.55 355.575 394.272 356.799 393.759 357.93C393.246 359.062 392.508 360.077 391.589 360.914C391.412 361.119 391.216 361.307 391.003 361.476C390.14 362.222 389.215 362.893 388.238 363.482C387.724 363.8 387.161 364.094 386.623 364.363C385.378 364.971 384.085 365.478 382.758 365.88C381.877 366.173 380.972 366.418 380.018 366.638C371.729 368.657 362.989 367.614 355.408 363.702C350.955 361.109 348.68 357.733 348.68 354.333V264.819" stroke="#0A1832" stroke-width="16.3227" stroke-linecap="round" stroke-linejoin="round"/>
<path d="M198.688 257.505L200.498 260.343" stroke="#0A1832" stroke-width="16.3227" stroke-linecap="round" stroke-linejoin="round"/>
<path d="M183.793 234.456C184.478 235.532 185.163 236.585 185.848 237.612" stroke="#0A1832" stroke-width="16.3227" stroke-linecap="round" stroke-linejoin="round"/>
<path d="M224.841 335.097L210.652 326.95C210.564 326.925 210.481 326.883 210.408 326.828L209.331 326.216L208.842 325.923L208.45 325.703L207.863 325.385L202.652 322.229H202.506C200.989 321.421 60.3456 240.177 59.7341 239.81C59.6554 239.769 59.5812 239.72 59.5138 239.663C58.5106 239.124 57.5565 238.537 56.5781 237.999" stroke="#0A1832" stroke-width="16.3227" stroke-linecap="round" stroke-linejoin="round"/>
<path d="M56.459 237.929L8.46094 210.186V172.879L224.894 50.0211L333.024 8.16309" stroke="#0A1832" stroke-width="16.3227" stroke-linecap="round" stroke-linejoin="round"/>
<path d="M116.665 130.973L8.55859 172.855" stroke="#0A1832" stroke-width="16.3227" stroke-linecap="round" stroke-linejoin="round"/>
<path d="M177.111 96.6553L174.664 98.0986" stroke="#0A1832" stroke-width="16.3227" stroke-linecap="round" stroke-linejoin="round"/>
<path d="M224.844 297.817L116.664 130.972C117.202 130.63 331.115 9.26398 333.023 8.16309L441.203 174.983" stroke="#0A1832" stroke-width="16.3227" stroke-linecap="round" stroke-linejoin="round"/>
<path d="M441.203 174.989V212.297L237.296 328.036L236.904 328.28L236.195 328.672L234.507 329.626L233.455 330.213L224.844 335.106V297.823C225.7 297.333 404.58 195.808 441.203 174.989Z" stroke="#0A1832" stroke-width="16.3227" stroke-linecap="round" stroke-linejoin="round"/>
<path d="M196.116 289.42L111.984 159.761L27.9258 192.322L196.116 289.42Z" stroke="#0A1832" stroke-width="16.3227" stroke-linecap="round" stroke-linejoin="round"/>
</svg>
