<svg width="70" height="66" viewBox="0 0 70 66" fill="none" xmlns="http://www.w3.org/2000/svg">
<path d="M21.7387 31.7573V36.3874C21.7387 37.2257 21.1847 38.0606 20.0765 38.7024C17.8636 39.9792 14.276 39.9792 12.0631 38.7024C10.9549 38.0606 10.4009 37.2257 10.4009 36.3874V31.7573C10.4009 32.5921 10.9549 33.4305 12.0631 34.0688C14.276 35.3456 17.8636 35.3456 20.0765 34.0688C21.1847 33.4305 21.7387 32.5921 21.7387 31.7573Z" fill="#F6F9FE"/>
<path d="M21.739 27.1201V31.7572C21.739 32.592 21.1848 33.4304 20.0767 34.0687C17.8638 35.3455 14.2762 35.3455 12.0634 34.0687C10.9552 33.4304 10.394 32.592 10.394 31.7572V27.1201C10.394 27.9585 10.9482 28.7968 12.0563 29.4352C14.2692 30.7154 17.8568 30.7154 20.0696 29.4352C21.1848 28.7968 21.739 27.9585 21.739 27.1201Z" fill="#A2D2FF"/>
<path d="M21.739 22.4863V27.1199C21.739 27.9582 21.1848 28.7966 20.0767 29.435C17.8638 30.7152 14.2762 30.7152 12.0634 29.435C10.9552 28.7966 10.394 27.9582 10.394 27.1199V22.4863C10.394 23.3247 10.9482 24.163 12.0563 24.8014C14.2692 26.0816 17.8568 26.0816 20.0696 24.8014C21.1848 24.163 21.739 23.3247 21.739 22.4863Z" fill="#A2D2FF"/>
<path d="M21.739 17.8564V22.4865C21.739 23.3248 21.1848 24.1632 20.0767 24.8015C17.8638 26.0819 14.2762 26.0819 12.0634 24.8015C10.9552 24.1632 10.394 23.3248 10.394 22.4865V17.8564C10.394 18.6912 10.9482 19.5296 12.0563 20.1679C14.2692 21.4482 17.8568 21.4482 20.0696 20.1679C21.1848 19.5155 21.739 18.6912 21.739 17.8564Z" fill="#A2D2FF"/>
<path d="M21.739 13.2202V17.8573C21.739 18.6921 21.1848 19.5304 20.0767 20.1688C17.8638 21.4491 14.2762 21.4491 12.0634 20.1688C10.9552 19.5164 10.394 18.6921 10.394 17.8573V13.2202C10.394 14.062 10.9482 14.8968 12.0563 15.5353C14.2692 16.8155 17.8568 16.8155 20.0696 15.5353C21.1848 14.8968 21.739 14.062 21.739 13.2202Z" fill="#A2D2FF"/>
<path d="M21.739 8.58984V13.2199C21.739 14.0617 21.1848 14.8966 20.0767 15.5349C17.8638 16.8152 14.2762 16.8152 12.0634 15.5349C10.9552 14.8966 10.394 14.0617 10.394 13.2199V8.58984C10.394 9.42464 10.9482 10.263 12.0563 10.9013C14.2692 12.1816 17.8568 12.1816 20.0696 10.9013C21.1848 10.263 21.739 9.42464 21.739 8.58984Z" fill="#A2D2FF"/>
<path d="M21.739 5.48545V8.5967C21.739 9.43156 21.1848 10.2698 20.0767 10.9083C17.8638 12.1885 14.2762 12.1885 12.0634 10.9083C10.9552 10.2629 10.394 9.42453 10.394 8.58973V4.02979C10.394 4.86811 10.9482 5.70292 12.0563 6.34482C14.2692 7.62162 17.8568 7.62162 20.0696 6.34482C21.1778 5.70292 21.7319 4.86811 21.7319 4.02979L21.739 5.48545Z" fill="#A2D2FF"/>
<path d="M20.0767 1.70759C21.1848 2.34597 21.739 3.1843 21.739 4.02262C21.739 4.86094 21.1848 5.69576 20.0767 6.33766C17.8638 7.61442 14.2762 7.61442 12.0634 6.33766C10.9552 5.69576 10.394 4.86094 10.394 4.02262C10.394 3.1843 10.9482 2.34597 12.0563 1.70759C14.2762 0.430805 17.8638 0.430805 20.0767 1.70759Z" fill="#F6F9FE"/>
<path d="M21.739 4.02262C21.739 4.86094 21.1848 5.69576 20.0767 6.33766C17.8638 7.61442 14.2762 7.61442 12.0634 6.33766C10.9552 5.69576 10.394 4.86094 10.394 4.02262C10.394 3.1843 10.9482 2.34597 12.0563 1.70759C14.2762 0.430805 17.8638 0.430805 20.0767 1.70759C21.1848 2.34597 21.739 3.1843 21.739 4.02262Z" stroke="#0A1832" stroke-width="1.5" stroke-linecap="round" stroke-linejoin="round"/>
<path d="M10.4009 36.3869V4.02197" stroke="#0A1832" stroke-width="1.5" stroke-linecap="round" stroke-linejoin="round"/>
<path d="M21.7387 36.3882C21.7387 37.2265 21.1847 38.0613 20.0765 38.7032C17.8636 39.98 14.276 39.98 12.0631 38.7032C10.9549 38.0613 10.4009 37.2265 10.4009 36.3882" stroke="#0A1832" stroke-width="1.5" stroke-linecap="round" stroke-linejoin="round"/>
<path d="M21.739 8.58984C21.739 9.42464 21.1848 10.263 20.0767 10.9013C17.8638 12.1816 14.2762 12.1816 12.0634 10.9013C10.9552 10.263 10.394 9.42464 10.394 8.58984" stroke="#0A1832" stroke-width="1.5" stroke-linecap="round" stroke-linejoin="round"/>
<path d="M21.739 13.2202C21.739 14.062 21.1848 14.8968 20.0767 15.5353C17.8638 16.8155 14.2762 16.8155 12.0634 15.5353C10.9552 14.8968 10.394 14.062 10.394 13.2202" stroke="#0A1832" stroke-width="1.5" stroke-linecap="round" stroke-linejoin="round"/>
<path d="M21.739 17.8564C21.739 18.6912 21.1848 19.5296 20.0767 20.1679C17.8638 21.4482 14.2762 21.4482 12.0634 20.1679C10.9552 19.5155 10.394 18.6912 10.394 17.8564" stroke="#0A1832" stroke-width="1.5" stroke-linecap="round" stroke-linejoin="round"/>
<path d="M21.739 22.4863C21.739 23.3247 21.1848 24.163 20.0767 24.8014C17.8638 26.0816 14.2762 26.0816 12.0634 24.8014C10.9552 24.163 10.394 23.3247 10.394 22.4863" stroke="#0A1832" stroke-width="1.5" stroke-linecap="round" stroke-linejoin="round"/>
<path d="M21.739 27.1201C21.739 27.9585 21.1848 28.7968 20.0767 29.4352C17.8638 30.7154 14.2762 30.7154 12.0634 29.4352C10.9552 28.7968 10.394 27.9585 10.394 27.1201" stroke="#0A1832" stroke-width="1.5" stroke-linecap="round" stroke-linejoin="round"/>
<path d="M21.739 31.7573C21.739 32.5921 21.1848 33.4305 20.0767 34.0688C17.8638 35.3456 14.2762 35.3456 12.0634 34.0688C10.9552 33.4305 10.394 32.5921 10.394 31.7573" stroke="#0A1832" stroke-width="1.5" stroke-linecap="round" stroke-linejoin="round"/>
<path d="M21.7393 4.02197V36.3869" stroke="#0A1832" stroke-width="1.5" stroke-linecap="round" stroke-linejoin="round"/>
<path d="M0.75 46.3696V50.9752L24.6006 64.7495V60.1406L0.75 46.3696Z" fill="#F6F9FE"/>
<path d="M0.75 41.9014V46.3701L24.6006 60.1411V55.6759L0.75 41.9014Z" fill="#F6F9FE"/>
<path d="M0.75 37.2651V41.9023L24.6006 55.6767V51.0396L0.75 37.2651Z" fill="#F6F9FE"/>
<path d="M0.75 37.2654L24.5971 51.0399L68.7493 25.55L44.9021 11.772L0.75 37.2654ZM29.0579 34.6908C25.9016 32.8809 25.9016 29.9345 29.0579 28.1211C32.2141 26.3076 37.2957 26.3076 40.4379 28.1211C43.58 29.9345 43.5941 32.8809 40.4379 34.6908C37.2816 36.5008 32.2001 36.5113 29.0579 34.6908Z" fill="#F6F9FE"/>
<path d="M24.6011 60.1408V64.75L68.7499 39.2599V34.6509L24.6011 60.1408Z" fill="#4A7FA7"/>
<path d="M24.6011 55.677V60.1422L68.7499 34.6523V30.187L24.6011 55.677Z" fill="#4A7FA7"/>
<path d="M24.6011 51.0383V55.6754L68.7499 30.1855V25.5483L24.6011 51.0383Z" fill="#4A7FA7"/>
<path d="M29.0576 28.1198C25.9014 29.9333 25.9014 32.8797 29.0576 34.6896C32.2138 36.4996 37.2954 36.5101 40.4376 34.6896C43.5798 32.8692 43.5938 29.9333 40.4376 28.1198C37.2814 26.3064 32.1999 26.3064 29.0576 28.1198Z" fill="#0A1832"/>
<path d="M49.9406 19.1224L44.8941 16.2041L39.7529 19.175" stroke="#0A1832" stroke-width="1.5" stroke-linecap="round" stroke-linejoin="round"/>
<path d="M56.0263 22.6304L61.0728 25.5487L55.9316 28.5197" stroke="#0A1832" stroke-width="1.5" stroke-linecap="round" stroke-linejoin="round"/>
<path d="M13.539 34.3105L8.42236 37.264L13.4689 40.1788" stroke="#0A1832" stroke-width="1.5" stroke-linecap="round" stroke-linejoin="round"/>
<path d="M29.7212 43.6514L24.6012 46.6048L19.5547 43.6935" stroke="#0A1832" stroke-width="1.5" stroke-linecap="round" stroke-linejoin="round"/>
<path d="M29.0576 34.6896C25.9014 32.8797 25.9014 29.9333 29.0576 28.1198C32.2138 26.3064 37.2954 26.3064 40.4376 28.1198C43.5798 29.9333 43.5938 32.8797 40.4376 34.6896C37.2814 36.4996 32.1999 36.5101 29.0576 34.6896Z" stroke="#0A1832" stroke-width="1.5" stroke-linecap="round" stroke-linejoin="round"/>
<path d="M24.6006 51.0399L68.7493 25.55L44.8952 11.772L0.75 37.2654L24.6006 51.0399Z" stroke="#0A1832" stroke-width="1.5" stroke-linecap="round" stroke-linejoin="round"/>
<path d="M68.7493 25.5483V39.2597L24.6006 64.7498L0.75 50.9752V37.2639" stroke="#0A1832" stroke-width="1.5" stroke-linecap="round" stroke-linejoin="round"/>
<path d="M68.7493 34.6509L24.6006 60.1408L0.75 46.3699" stroke="#0A1832" stroke-width="1.5" stroke-linecap="round" stroke-linejoin="round"/>
<path d="M68.7493 30.187L24.6006 55.677L0.75 41.9025" stroke="#0A1832" stroke-width="1.5" stroke-linecap="round" stroke-linejoin="round"/>
<path d="M24.6011 51.0391V64.7467" stroke="#0A1832" stroke-width="1.5" stroke-linecap="round" stroke-linejoin="round"/>
<path d="M64.3408 43.3677V47.9977C64.3408 48.8395 63.7867 49.6779 62.6785 50.3128C60.4657 51.593 56.878 51.593 54.6652 50.3128C53.557 49.6779 53.0029 48.8395 53.0029 47.9977V43.3677C53.0029 44.206 53.557 45.0443 54.6652 45.6827C56.878 46.9594 60.4657 46.9594 62.6785 45.6827C63.7867 45.0302 64.3408 44.192 64.3408 43.3677Z" fill="#F6F9FE"/>
<path d="M64.3408 38.7207V43.3683C64.3408 44.2066 63.7867 45.045 62.6785 45.6833C60.4657 46.9601 56.878 46.9601 54.6652 45.6833C53.557 45.045 53.0029 44.2066 53.0029 43.3683V38.7207C53.0029 39.5625 53.557 40.3973 54.6652 41.0357C56.878 42.316 60.4657 42.316 62.6785 41.0357C63.7867 40.3973 64.3408 39.5625 64.3408 38.7207Z" fill="#F6F9FE"/>
<path d="M64.3408 34.0859V38.7195C64.3408 39.5613 63.7867 40.3961 62.6785 41.0346C60.4657 42.3148 56.878 42.3148 54.6652 41.0346C53.557 40.3961 53.0029 39.5613 53.0029 38.7195V34.0859C53.0029 34.9243 53.557 35.7626 54.6652 36.401C56.878 37.6778 60.4657 37.6778 62.6785 36.401C63.7867 35.7626 64.3408 34.9243 64.3408 34.0859Z" fill="#F6F9FE"/>
<path d="M64.3408 30.9755V34.0868C64.3408 34.9251 63.7867 35.7634 62.6785 36.4019C60.4657 37.6786 56.878 37.6786 54.6652 36.4019C53.557 35.7634 53.0029 34.9251 53.0029 34.0868V29.5269C53.0029 30.3652 53.557 31.2 54.6652 31.8384C56.878 33.1187 60.4657 33.1187 62.6785 31.8384C63.7867 31.2 64.3408 30.3652 64.3408 29.5269V30.9755Z" fill="#F6F9FE"/>
<path d="M62.6785 27.2081C63.7867 27.8464 64.3408 28.6848 64.3408 29.5231C64.3408 30.3614 63.7867 31.1962 62.6785 31.8346C60.4657 33.1149 56.878 33.1149 54.6652 31.8346C53.557 31.1962 53.0029 30.3614 53.0029 29.5231C53.0029 28.6848 53.557 27.8464 54.6652 27.2081C56.878 25.9313 60.4657 25.9313 62.6785 27.2081Z" fill="#F6F9FE"/>
<path d="M64.3408 29.5231C64.3408 30.3614 63.7867 31.1962 62.6785 31.8346C60.4657 33.1149 56.878 33.1149 54.6652 31.8346C53.557 31.1962 53.0029 30.3614 53.0029 29.5231C53.0029 28.6848 53.557 27.8464 54.6652 27.2081C56.878 25.9313 60.4657 25.9313 62.6785 27.2081C63.7867 27.8464 64.3408 28.6848 64.3408 29.5231Z" stroke="#0A1832" stroke-width="1.5" stroke-linecap="round" stroke-linejoin="round"/>
<path d="M64.3408 34.0859C64.3408 34.9243 63.7867 35.7626 62.6785 36.401C60.4657 37.6778 56.878 37.6778 54.6652 36.401C53.557 35.7626 53.0029 34.9243 53.0029 34.0859" stroke="#0A1832" stroke-width="1.5" stroke-linecap="round" stroke-linejoin="round"/>
<path d="M64.3408 38.7207C64.3408 39.5625 63.7867 40.3973 62.6785 41.0357C60.4657 42.316 56.878 42.316 54.6652 41.0357C53.557 40.3973 53.0029 39.5625 53.0029 38.7207" stroke="#0A1832" stroke-width="1.5" stroke-linecap="round" stroke-linejoin="round"/>
<path d="M64.3408 43.3677C64.3408 44.206 63.7867 45.0443 62.6785 45.6827C60.4657 46.9594 56.878 46.9594 54.6652 45.6827C53.557 45.0443 53.0029 44.206 53.0029 43.3677" stroke="#0A1832" stroke-width="1.5" stroke-linecap="round" stroke-linejoin="round"/>
<path d="M64.3408 29.5234V47.9841C64.3408 48.8259 63.7867 49.6642 62.6785 50.2991C60.4657 51.5794 56.878 51.5794 54.6652 50.2991C53.557 49.6642 53.0029 48.8259 53.0029 47.9841V29.5234" stroke="#0A1832" stroke-width="1.5" stroke-linecap="round" stroke-linejoin="round"/>
</svg>
