<svg width="288" height="83" viewBox="0 0 288 83" fill="none" xmlns="http://www.w3.org/2000/svg">
<path d="M0 22.5176C0.00019746 21.5066 1.07296 20.8564 1.96973 21.3232L36.1816 39.1338L69.6836 21.6924C70.5804 21.2256 71.6533 21.8766 71.6533 22.8877V59.2812C71.6533 60.2923 70.5804 60.9433 69.6836 60.4766L35.4707 42.6641L1.96973 60.1064C1.07288 60.5734 0 59.9222 0 58.9111V22.5176Z" fill="#FFFFFF"/>
<rect x="21.9844" width="26.9175" height="26.9175" rx="13.4587" fill="#4A7FA7"/>
<path d="M22.2227 68.8259C22.2227 61.3929 28.2483 55.3672 35.6814 55.3672C43.1144 55.3672 49.1401 61.3929 49.1401 68.8259C49.1401 76.259 43.1144 82.2846 35.6814 82.2846C28.2483 82.2846 22.2227 76.259 22.2227 68.8259Z" fill="#4A7FA7"/>
<path d="M91.1953 17.4476V9.77057H136.66V17.4476H118.15V71.4426H109.791V17.4476H91.1953Z" fill="#FFFFFF"/>
<path d="M144.885 72.4662C135.929 72.4662 130.64 67.4335 130.64 59.8417C130.64 52.1647 136.355 47.3879 146.165 46.6202L159.301 45.5966V44.4024C159.301 37.4078 155.121 34.9341 149.491 34.9341C142.753 34.9341 138.914 37.9196 138.914 42.9523H131.919C131.919 34.2517 139.085 28.5366 149.832 28.5366C160.154 28.5366 167.148 33.9958 167.148 45.2554V45.5966V52.1023V71.4426H160.324L159.471 64.7038C157.339 69.4807 151.624 72.4662 144.885 72.4662ZM147.188 66.2392C154.78 66.2392 159.386 61.2918 159.386 53.4442L167.148 52.1023L148.724 52.0794C141.644 52.7618 138.743 55.4914 138.743 59.5858C138.743 64.0214 141.985 66.2392 147.188 66.2392Z" fill="#FFFFFF"/>
<path d="M186.186 72.4662C177.229 72.4662 171.941 67.4335 171.941 59.8417C171.941 56.3264 173.139 53.4191 175.38 51.2264C178.033 48.6307 182.148 47.0364 187.465 46.6202L200.601 45.5966V44.4024C200.601 37.4078 196.422 34.9341 190.792 34.9341C184.053 34.9341 180.215 37.0438 180.215 42.0765H173.22C173.22 33.3759 180.385 28.5366 191.133 28.5366C201.454 28.5366 208.449 33.9958 208.449 45.2554V71.4426H201.625L200.772 64.7038C198.639 69.4807 192.924 72.4662 186.186 72.4662ZM188.489 66.2392C196.08 66.2392 200.687 61.2918 200.687 53.4442L208.449 51.2264L190.024 52.0794C182.944 52.7618 180.044 55.4914 180.044 59.5858C180.044 64.0214 183.285 66.2392 188.489 66.2392Z" fill="#FFFFFF"/>
<path d="M211.876 59.3299H219.553C219.553 63.5949 222.795 66.1539 228.083 66.1539C233.713 66.1539 236.955 63.8509 236.955 60.0123C236.955 57.1974 235.59 55.4914 231.239 54.3825L223.904 52.6765C216.483 50.8852 212.985 47.2173 212.985 41.0757C212.985 33.3987 219.468 28.5366 228.68 28.5366C237.808 28.5366 243.779 33.6546 243.949 41.5875H236.272C236.102 37.4078 233.287 34.7635 228.425 34.7635C223.392 34.7635 220.577 36.9813 220.577 40.8198C220.577 43.6347 222.624 45.5113 226.719 46.5349L234.054 48.3262C241.134 50.0322 244.632 53.2736 244.632 59.5005C244.632 67.4335 237.808 72.4662 227.913 72.4662C218.103 72.4662 211.876 67.2628 211.876 59.3299Z" fill="#FFFFFF"/>
<path d="M257.277 71.3573H249.258V9.77051H257.277V36.1283C259.921 31.6074 264.954 28.5366 271.436 28.5366C282.099 28.5366 287.217 35.2753 287.217 45.9378V71.4426H279.199V47.7291C279.199 39.2844 275.19 35.8724 269.219 35.8724C261.456 35.8724 257.277 41.5022 257.277 48.6674V71.3573Z" fill="#FFFFFF"/>
<path d="M167.148 45.5966V52.1023L175.38 51.2264C178.033 48.6307 182.148 47.0364 187.465 46.6202L200.601 45.5966H167.148Z" fill="#FFFFFF"/>
</svg>
