<svg width="53" height="66" viewBox="0 0 53 66" fill="none" xmlns="http://www.w3.org/2000/svg">
<path d="M51.3853 12.4327C52.1661 22.8313 52.2288 32.937 45.9441 36.5801C41.8152 38.9732 41.206 34.0982 38.8474 32.7303L25.5781 25.0361L25.8124 24.9079C32.0995 21.2804 32.0318 11.1434 31.2457 0.75L51.3853 12.4327Z" fill="#F6F9FE"/>
<path d="M22.7944 64.4339L22.7658 64.418C21.0293 63.2543 20.8757 59.2843 20.8757 56.2113L8.68945 49.1342C12.3055 41.4242 8.60615 25.3084 15.328 21.4116C16.8327 20.5381 17.8845 20.5825 18.7123 21.0664L38.7946 32.7151C37.9667 32.2548 36.9228 32.226 35.4415 33.0838C27.5039 37.6894 34.1112 59.3603 26.0095 64.0575C24.5699 64.8785 23.5416 64.9097 22.7944 64.4339Z" fill="#F6F9FE"/>
<path d="M22.7665 64.4092L2.75198 52.8027C0.911407 51.7356 0.75 47.6635 0.75 44.5303L8.6902 49.1307L20.8817 56.192C20.8765 59.2756 21.0301 63.2455 22.7665 64.4092Z" fill="#4A7FA7"/>
<path d="M8.68945 49.1312C12.3055 41.4211 8.60615 25.3054 15.328 21.4086C16.8327 20.535 17.8845 20.5795 18.7124 21.0634L38.8362 32.7356C41.1948 34.1034 41.804 38.9784 45.9329 36.5854C52.2202 32.937 52.1652 22.8313 51.3843 12.4327L31.2449 0.75C32.0259 11.1434 32.0988 21.2726 25.8117 24.9079L25.5774 25.0361" stroke="#0A1832" stroke-width="1.5" stroke-linecap="round" stroke-linejoin="round"/>
<path d="M22.7949 64.434C23.5421 64.918 24.5782 64.8868 26.0126 64.0576C34.1142 59.3498 27.507 37.6896 35.4446 33.084C36.9259 32.2262 37.9698 32.2549 38.7977 32.7152" stroke="#0A1832" stroke-width="1.5" stroke-linecap="round" stroke-linejoin="round"/>
<path d="M22.7665 64.4092L2.75198 52.8027C0.911407 51.7356 0.75 47.6635 0.75 44.5303L8.6902 49.1307L20.8817 56.192C20.8765 59.2756 21.0301 63.2455 22.7665 64.4092Z" stroke="#0A1832" stroke-width="1.5" stroke-linecap="round" stroke-linejoin="round"/>
<path d="M22.7666 64.4102L22.7952 64.4255" stroke="#0A1832" stroke-width="1.5" stroke-linecap="round" stroke-linejoin="round"/>
<path d="M22.8782 64.4748L22.7949 64.4253" stroke="#0A1832" stroke-width="1.5" stroke-linecap="round" stroke-linejoin="round"/>
<path d="M47.1232 16.5933L40.4639 12.7305" stroke="#0A1832" stroke-width="1.5" stroke-linecap="round" stroke-linejoin="round"/>
<path d="M37.4003 10.9524L35.1875 9.6709" stroke="#0A1832" stroke-width="1.5" stroke-linecap="round" stroke-linejoin="round"/>
<path d="M47.1705 23.2529L34.7188 16.0293" stroke="#0A1832" stroke-width="1.5" stroke-linecap="round" stroke-linejoin="round"/>
<path d="M46.2179 29.3301L33.1855 21.7666" stroke="#0A1832" stroke-width="1.5" stroke-linecap="round" stroke-linejoin="round"/>
<path d="M29.2101 33.5387L16.0918 25.9307" stroke="#0A1832" stroke-width="1.5" stroke-linecap="round" stroke-linejoin="round"/>
<path d="M27.2445 39.0281L24.1699 37.2471" stroke="#0A1832" stroke-width="1.5" stroke-linecap="round" stroke-linejoin="round"/>
<path d="M21.2099 35.5259L14.6416 31.7153" stroke="#0A1832" stroke-width="1.5" stroke-linecap="round" stroke-linejoin="round"/>
<path d="M26.4899 45.2186L14.2021 38.0918" stroke="#0A1832" stroke-width="1.5" stroke-linecap="round" stroke-linejoin="round"/>
<path d="M26.112 51.6313L19.916 48.0376" stroke="#0A1832" stroke-width="1.5" stroke-linecap="round" stroke-linejoin="round"/>
<path d="M17.0494 46.3749L13.665 44.416" stroke="#0A1832" stroke-width="1.5" stroke-linecap="round" stroke-linejoin="round"/>
</svg>
