<svg width="52" height="66" viewBox="0 0 52 66" fill="none" xmlns="http://www.w3.org/2000/svg">
<path d="M50.9613 50.6327C50.9974 50.6953 51.0085 50.769 50.9923 50.8393C50.6824 52.2546 49.0055 52.9761 48.0198 53.2875C47.8114 53.3543 47.5877 53.3577 47.3773 53.2972C47.1669 53.2368 46.9795 53.1153 46.8389 52.9483C45.7814 51.6973 44.619 50.5379 43.3643 49.4826C45.0984 47.7453 46.5565 45.7553 47.6882 43.5811C48.5829 46.017 49.6777 48.3755 50.9613 50.6327Z" fill="#A2D2FF"/>
<path d="M25.5488 26.0024C23.7603 26.1719 21.9842 28.5153 21.6805 32.1413C25.524 33.3068 27.1636 34.7159 28.3477 38.0737C28.3477 38.0737 30.8862 38.5887 31.968 38.7305C33.3287 31.2533 28.9149 27.3621 26.801 26.2552C26.419 26.0467 25.9823 25.9585 25.5488 26.0024ZM50.1533 33.868C50.1169 37.2559 49.2667 40.586 47.6737 43.5807C46.5439 45.756 45.0856 47.7463 43.3497 49.4822C43.3187 49.513 43.2909 49.5438 43.2567 49.5747C39.1737 53.552 34.1399 56.4297 28.6298 57.9368C25.9377 58.6974 23.1553 59.0957 20.3569 59.1207C16.4918 59.1207 12.8342 58.316 9.79668 56.5925L13.1504 54.6684C14.0276 54.1658 14.57 53.0867 14.57 51.548C14.57 48.4647 12.4003 44.74 9.72536 43.2014C8.38637 42.4367 7.17442 42.3627 6.31579 42.8653L2.51262 45.0298L2.42893 45.0791C2.30095 45.1514 2.18051 45.236 2.06938 45.332C1.81657 43.9152 1.69209 42.4788 1.69743 41.0399C1.7089 36.5262 3.03062 32.1116 5.50372 28.3272C5.50372 28.3272 9.14576 24.0105 12.1678 24.8183C12.1678 24.8183 13.7951 24.0012 14.8645 23.4C14.2497 22.6024 13.5729 21.8539 12.8405 21.1615C17.3256 18.3402 23.2365 16.5703 30.7189 16.5703C34.4384 16.5703 37.4636 17.187 39.9433 18.2384C41.1887 18.7542 42.3668 19.4178 43.452 20.2148C48.6562 24.0506 50.1533 30.0631 50.1533 33.868ZM32.2222 19.8572L30.8088 18.8859C26.3547 18.8859 20.8901 21.513 18.7669 24.4792L20.4438 25.99C22.9885 22.589 27.3032 20.3474 32.2222 19.8572Z" fill="#A2D2FF"/>
<path d="M41.7692 12.3403C43.2167 14.0547 44.3077 16.3733 43.4677 20.2091C42.3825 19.412 41.2044 18.7484 39.959 18.2326C41.0965 16.4998 41.546 14.6158 41.7692 12.3403Z" fill="#0A1832"/>
<path d="M30.8085 18.8862L32.2219 19.8575C27.3029 20.3477 22.9883 22.5894 20.4435 25.9903L18.7666 24.4794C20.8992 21.504 26.3544 18.8801 30.8085 18.8862Z" fill="#0A1832"/>
<path d="M26.8006 26.2557C28.9145 27.375 33.3283 31.2538 31.9676 38.731C30.8858 38.5892 28.3472 38.0742 28.3472 38.0742C29.0384 32.4964 28.9207 26.2927 25.5576 26.0029C25.9881 25.9609 26.4212 26.0491 26.8006 26.2557Z" fill="#0A1832"/>
<path d="M25.5485 26.002C28.9208 26.2918 29.0386 32.4955 28.3381 38.0733C27.1541 34.7155 25.5144 33.3064 21.6709 32.1409C21.9839 28.5149 23.76 26.1715 25.5485 26.002Z" fill="#F6F9FE"/>
<path d="M28.6447 57.937C28.2588 59.7805 27.9897 61.6467 27.8389 63.5241C27.8181 63.7576 27.724 63.9786 27.5699 64.1566C27.4159 64.334 27.2096 64.4592 26.9802 64.5136C25.486 64.8944 23.943 65.0514 22.4021 64.9794C22.1943 64.9715 21.9948 64.8961 21.8342 64.7647C21.6734 64.6332 21.5605 64.453 21.5126 64.2518C21.2398 63.1167 20.6974 60.8227 20.3564 59.1237C23.1602 59.0993 25.9478 58.6998 28.6447 57.937Z" fill="#A2D2FF"/>
<path d="M14.5691 51.5357C14.5691 53.0774 14.0267 54.1535 13.1495 54.6561L9.79576 56.5801L9.72757 56.5461C10.3475 55.9634 10.6977 55.0045 10.6977 53.7711C10.6977 50.6878 8.52804 46.96 5.85308 45.4245C4.55745 44.6783 3.3734 44.5889 2.51172 45.0391L6.29943 42.8622C7.1735 42.3596 8.38545 42.4336 9.72449 43.1982C12.3994 44.7276 14.5691 48.4647 14.5691 51.5357Z" fill="#A2D2FF"/>
<path d="M14.8641 23.4C13.7947 24.0012 12.1674 24.8183 12.1674 24.8183C10.6394 21.4266 6.43322 17.0791 4.76562 18.7533C5.01241 18.2189 5.45632 17.7994 6.00546 17.5816C7.83111 16.9372 10.7881 19.1757 12.8246 21.1614C13.5624 21.8533 14.2443 22.6017 14.8641 23.4Z" fill="#0A1832"/>
<path d="M12.168 24.8186C9.14583 24.0015 5.50383 28.3274 5.50383 28.3274C4.16791 25.5339 3.60378 20.9736 4.76303 18.769C6.43373 17.0824 10.6398 21.43 12.168 24.8186Z" fill="#F6F9FE"/>
<path d="M9.79679 56.5808L9.35352 56.8367C9.4883 56.7533 9.61398 56.6561 9.7286 56.5469L9.79679 56.5808Z" fill="#F6F9FE"/>
<path d="M10.6986 53.7618C10.6986 55.0137 10.3391 55.9633 9.72842 56.5368C9.61386 56.6461 9.48819 56.7432 9.3534 56.8267L9.279 56.8698C8.99416 57.0363 8.67735 57.1413 8.3491 57.1782C7.46689 57.2405 6.58809 57.0166 5.84466 56.5399C5.08609 56.0893 4.40227 55.5245 3.81753 54.8656C2.15305 53.0156 1 50.4349 1 48.1933C1 46.8797 1.39675 45.8992 2.06006 45.3288C2.1704 45.2318 2.29095 45.1471 2.41961 45.0759L2.5033 45.0266C3.37119 44.5765 4.54903 44.6659 5.84466 45.4121C8.5289 46.9507 10.6986 50.6877 10.6986 53.7618ZM7.7106 52.8368C7.6975 52.6027 7.62919 52.375 7.51127 52.172C7.39334 51.969 7.2291 51.7964 7.03182 51.6682C6.65987 51.4524 6.35612 51.6281 6.35612 52.0567C6.36888 52.2905 6.43667 52.5181 6.55408 52.7211C6.67144 52.924 6.83505 53.0967 7.03182 53.2253C7.40684 53.4565 7.7106 53.2808 7.7106 52.8522V52.8368ZM4.27936 49.8336C4.26771 49.5991 4.20005 49.3709 4.082 49.1677C3.96395 48.9644 3.79891 48.7921 3.60056 48.665C3.2286 48.4491 2.92485 48.6249 2.92485 49.0535C2.93763 49.2869 3.00546 49.514 3.12285 49.7165C3.24024 49.919 3.40388 50.0911 3.60056 50.219C3.97871 50.4503 4.27936 50.2776 4.27936 49.849V49.8336Z" fill="#F6F9FE"/>
<path d="M8.35757 57.1816L7.53306 58.2883C7.38842 58.4861 7.18641 58.6352 6.9542 58.7151C6.72206 58.795 6.47083 58.8018 6.23434 58.7355C5.30378 58.5303 4.43244 58.1172 3.68648 57.5267C3.54338 57.4094 3.43785 57.253 3.3828 57.0765C3.32775 56.9002 3.32557 56.7117 3.37652 56.5341C3.485 56.1579 3.64309 55.5937 3.82906 54.8691C4.41381 55.528 5.09762 56.0928 5.85619 56.5434C6.59878 57.0194 7.47638 57.2433 8.35757 57.1816Z" fill="#A2D2FF"/>
<path d="M7.03215 51.6841C7.22943 51.8124 7.39367 51.9849 7.5116 52.1879C7.62952 52.3909 7.69783 52.6187 7.71093 52.8527C7.71093 53.2813 7.40096 53.4694 7.03215 53.2413C6.83538 53.1127 6.67177 52.94 6.55441 52.737C6.437 52.534 6.36921 52.3065 6.35645 52.0727C6.35645 51.6441 6.6602 51.4683 7.03215 51.6841Z" fill="#0A1832"/>
<path d="M3.60051 48.6808C3.79887 48.8079 3.9639 48.9802 4.08195 49.1835C4.2 49.3867 4.26766 49.615 4.27932 49.8494C4.27932 50.278 3.96936 50.4507 3.60051 50.2348C3.40384 50.1069 3.24019 49.9348 3.1228 49.7323C3.00542 49.5298 2.93759 49.3027 2.9248 49.0693C2.9248 48.6377 3.22856 48.465 3.60051 48.6808Z" fill="#0A1832"/>
<path d="M12.8405 21.1615C17.3256 18.3402 23.2365 16.5703 30.719 16.5703C34.4384 16.5703 37.4606 17.2024 39.9433 18.2384C41.1887 18.7542 42.3668 19.4178 43.452 20.2148C48.6563 24.0568 50.1534 30.0817 50.1534 33.8742C50.117 37.2621 49.2668 40.5922 47.6737 43.5868C46.5439 45.7622 45.0857 47.7524 43.3498 49.4884C43.3188 49.5192 43.2909 49.55 43.2568 49.5809C39.1746 53.5592 34.1405 56.4371 28.6298 57.9431C25.9378 58.703 23.1553 59.0991 20.357 59.1207C16.4918 59.1207 12.8343 58.316 9.79671 56.5925L9.72852 56.5585" stroke="#0A1832" stroke-width="2" stroke-linecap="round" stroke-linejoin="round"/>
<path d="M2.06938 45.3324C1.81657 43.9157 1.69209 42.4792 1.69743 41.0404C1.7089 36.5265 3.03062 32.1121 5.50372 28.3276" stroke="#0A1832" stroke-width="2" stroke-linecap="round" stroke-linejoin="round"/>
<path d="M39.9434 18.2326C41.0964 16.4998 41.5458 14.6158 41.7535 12.3403C43.201 14.0547 44.292 16.3733 43.4521 20.2091" stroke="#0A1832" stroke-width="2" stroke-linecap="round" stroke-linejoin="round"/>
<path d="M20.3564 59.1212C20.6974 60.8202 21.2398 63.1142 21.5126 64.2487C21.56 64.4505 21.6726 64.6312 21.8334 64.7633C21.9941 64.8953 22.1939 64.9713 22.4021 64.9792C23.9422 65.0568 25.4852 64.905 26.9802 64.5292C27.2096 64.4748 27.4159 64.3496 27.5699 64.1722C27.724 63.9943 27.8181 63.7732 27.8389 63.5398C27.9897 61.6623 28.2588 59.7961 28.6447 57.9526" stroke="#0A1832" stroke-width="2" stroke-linecap="round" stroke-linejoin="round"/>
<path d="M43.3643 49.4826C44.6193 50.5399 45.7817 51.7014 46.8389 52.9545C46.9795 53.1215 47.1669 53.243 47.3773 53.3034C47.5877 53.3638 47.8114 53.3604 48.0198 53.2937C49.0055 52.9853 50.6669 52.2607 50.9923 50.8455C51.0085 50.7752 50.9974 50.7014 50.9613 50.6389C49.6773 48.3797 48.5826 46.0191 47.6882 43.5811" stroke="#0A1832" stroke-width="2" stroke-linecap="round" stroke-linejoin="round"/>
<path d="M28.3479 38.0735C27.1638 34.7158 25.5242 33.3067 21.6807 32.1411C21.9906 28.5151 23.7636 26.181 25.5489 26.0021C25.9784 25.9608 26.4104 26.0489 26.7888 26.255C28.9027 27.3742 33.3165 31.2531 31.9558 38.7303C30.8864 38.5884 28.3479 38.0735 28.3479 38.0735Z" stroke="#0A1832" stroke-width="2" stroke-linecap="round" stroke-linejoin="round"/>
<path d="M28.3483 38.0735C29.0395 32.4957 28.9124 26.3567 25.5587 26.0021C25.475 25.9973 25.3912 25.9973 25.3076 26.0021" stroke="#0A1832" stroke-width="2" stroke-linecap="round" stroke-linejoin="round"/>
<path d="M4.76303 18.7564C5.01022 18.2216 5.45387 17.8012 6.00286 17.5816C7.82855 16.9372 10.7856 19.1757 12.822 21.1614C13.5544 21.8538 14.2312 22.6023 14.846 23.4C13.7766 24.0012 12.1493 24.8183 12.1493 24.8183C9.14583 24.0012 5.50383 28.3272 5.50383 28.3272C4.16791 25.5337 3.60378 20.9733 4.76303 18.7564Z" stroke="#0A1832" stroke-width="2" stroke-linecap="round" stroke-linejoin="round"/>
<path d="M12.1674 24.8184C10.6394 21.4267 6.43322 17.0791 4.76562 18.7534" stroke="#0A1832" stroke-width="2" stroke-linecap="round" stroke-linejoin="round"/>
<path d="M18.7666 24.4794L20.4435 25.9903C22.9883 22.5986 27.3029 20.3477 32.2219 19.8575L30.8085 18.8862C26.3544 18.8801 20.8992 21.504 18.7666 24.4794Z" stroke="#0A1832" stroke-width="2" stroke-linecap="round" stroke-linejoin="round"/>
<path d="M9.279 56.8796C8.99416 57.046 8.67735 57.1511 8.3491 57.188C7.467 57.2489 6.58866 57.0251 5.84466 56.5497C5.08609 56.0991 4.40227 55.5343 3.81753 54.8754C2.15305 53.0254 1 50.4446 1 48.203C1 46.8895 1.39675 45.909 2.06006 45.3385C2.1704 45.2416 2.29095 45.1568 2.41961 45.0857L2.5033 45.0364C3.37119 44.5862 4.54903 44.6757 5.84466 45.4218C8.51961 46.9635 10.6893 50.6944 10.6893 53.7685C10.6893 55.0203 10.3298 55.97 9.71914 56.5435C9.60457 56.6528 9.47884 56.75 9.34411 56.8334" stroke="#0A1832" stroke-width="2" stroke-linecap="round" stroke-linejoin="round"/>
<path d="M2.42773 45.0786L6.29911 42.8524C7.17318 42.3498 8.38513 42.4238 9.72418 43.1885C12.3991 44.7302 14.5688 48.4641 14.5688 51.5352C14.5688 53.0769 14.0264 54.1529 13.1492 54.6555L9.27783 56.8787" stroke="#0A1832" stroke-width="2" stroke-linecap="round" stroke-linejoin="round"/>
<path d="M4.27932 49.8489C4.27932 50.2775 3.96936 50.4502 3.60051 50.2343C3.40384 50.1064 3.24019 49.9343 3.1228 49.7318C3.00542 49.5293 2.93759 49.3022 2.9248 49.0688C2.9248 48.6402 3.23476 48.4521 3.60051 48.6803C3.79887 48.8074 3.9639 48.9797 4.08195 49.183C4.2 49.3862 4.26766 49.6144 4.27932 49.8489Z" stroke="#0A1832" stroke-width="2" stroke-linecap="round" stroke-linejoin="round"/>
<path d="M7.71093 52.8523C7.71093 53.2809 7.40096 53.469 7.03215 53.2408C6.83538 53.1123 6.67177 52.9395 6.55441 52.7366C6.437 52.5336 6.36921 52.3061 6.35645 52.0722C6.35645 51.6436 6.66635 51.4555 7.03215 51.6837C7.22943 51.8119 7.39367 51.9845 7.5116 52.1875C7.62952 52.3905 7.69783 52.6183 7.71093 52.8523Z" stroke="#0A1832" stroke-width="2" stroke-linecap="round" stroke-linejoin="round"/>
<path d="M15.9678 42.668V44.9435" stroke="#0A1832" stroke-width="2" stroke-linecap="round" stroke-linejoin="round"/>
<path d="M6.34277 37.2563V39.4332" stroke="#0A1832" stroke-width="2" stroke-linecap="round" stroke-linejoin="round"/>
<path d="M3.82711 54.8691C3.64113 55.5937 3.48305 56.1579 3.37456 56.5341C3.32361 56.7117 3.32579 56.9002 3.38085 57.0765C3.4359 57.253 3.54143 57.4094 3.68452 57.5267C4.43049 58.1172 5.30183 58.5303 6.23239 58.7355C6.46887 58.8018 6.7201 58.795 6.9523 58.7151C7.18445 58.6352 7.38646 58.4861 7.5311 58.2883L8.35561 57.1816" stroke="#0A1832" stroke-width="2" stroke-linecap="round" stroke-linejoin="round"/>
<path d="M22.4576 1.84475C17.5634 4.65369 14.5599 12.6519 17.2565 15.8494C17.4257 16.0529 17.6181 16.2361 17.83 16.3951C17.9106 16.4537 17.9973 16.5093 18.0842 16.5617L20.632 18.0263C20.531 17.9686 20.4337 17.9048 20.3406 17.8351C20.1251 17.6782 19.9303 17.4948 19.761 17.2893C17.0737 14.1042 20.071 6.08746 24.9714 3.28468C26.6483 2.32267 28.1733 2.21167 29.2923 2.816L26.7816 1.37299C25.6503 0.76865 24.1376 0.876567 22.4576 1.84475Z" fill="#4A7FA7"/>
<path d="M24.9721 3.28448C20.0717 6.08726 17.0744 14.104 19.7617 17.2891C19.9291 17.4942 20.1218 17.6776 20.3351 17.8349C20.4282 17.9046 20.5255 17.9684 20.6265 18.0261C24.346 20.1474 31.1651 13.3177 31.1651 6.85193C31.1651 4.85391 30.4491 3.46023 29.3053 2.84355H29.2868C28.174 2.21146 26.649 2.32246 24.9721 3.28448Z" fill="#FDE52B"/>
<path d="M20.6328 18.0267C24.3523 20.1604 31.1714 13.3184 31.1714 6.85263C31.1714 4.8546 30.4554 3.46091 29.3117 2.84424" stroke="#0A1832" stroke-width="2" stroke-linecap="round" stroke-linejoin="round"/>
<path d="M26.7823 1.37305L29.293 2.81607C28.174 2.19939 26.649 2.32273 24.9721 3.28474C20.0717 6.08752 17.0744 14.1043 19.7617 17.2894C19.9291 17.4945 20.1218 17.6778 20.3351 17.8351C20.4282 17.9049 20.5255 17.9687 20.6265 18.0263" stroke="#0A1832" stroke-width="2" stroke-linecap="round" stroke-linejoin="round"/>
<path d="M18.0847 16.5717C17.9979 16.5193 17.9111 16.4638 17.8305 16.4052C17.6186 16.2462 17.4262 16.063 17.2571 15.8595C14.5604 12.6621 17.567 4.66379 22.4582 1.85484C24.1381 0.877411 25.6508 0.769493 26.7821 1.37383" stroke="#0A1832" stroke-width="2" stroke-linecap="round" stroke-linejoin="round"/>
<path d="M20.6327 18.0259L19.7803 17.5356" stroke="#0A1832" stroke-width="2" stroke-linecap="round" stroke-linejoin="round"/>
<path d="M19.7805 17.5359L18.085 16.5615" stroke="#0A1832" stroke-width="2" stroke-linecap="round" stroke-linejoin="round"/>
<path d="M25.2977 8.16007C24.6971 8.51958 24.1633 8.97963 23.7201 9.51981C23.5186 9.79733 23.3698 10.1365 23.5341 10.2999C23.9432 10.7347 25.1149 8.87541 26.147 8.67191C26.987 8.50847 27.8239 9.62465 26.6429 11.6073L27.3249 12.3319L26.581 13.3555L25.9083 12.6248C25.402 13.2259 24.7665 13.7064 24.0486 14.0308L23.7913 12.8159C25.0064 12.3596 26.3268 10.9073 25.896 10.4479C25.3659 9.88675 23.658 13.0256 22.5515 11.8539C22.0431 11.3113 22.1734 10.3122 22.7654 9.2793L22.1113 8.58555L22.8429 7.57115L23.4814 8.2649C23.915 7.74019 24.44 7.29737 25.0312 6.95752L25.2977 8.16007Z" fill="#0A1832"/>
</svg>
